<mxfile host="app.diagrams.net" agent="Mozilla/5.0 (Windows NT 10.0; Win64; x64) AppleWebKit/537.36 (KHTML, like Gecko) Chrome/128.0.0.0 Safari/537.36" version="24.7.12">
  <diagram name="第 1 页" id="_xywCpmcIQNxDfHv5XPz">
    <mxGraphModel dx="930" dy="418" grid="1" gridSize="10" guides="1" tooltips="1" connect="1" arrows="1" fold="1" page="1" pageScale="1" pageWidth="827" pageHeight="1169" math="0" shadow="0">
      <root>
        <mxCell id="0" />
        <mxCell id="1" parent="0" />
        <mxCell id="GrmwKypMMADmt5Vv2vs1-1" value="" style="rounded=1;whiteSpace=wrap;html=1;" vertex="1" parent="1">
          <mxGeometry x="110" y="130" width="620" height="390" as="geometry" />
        </mxCell>
        <mxCell id="GrmwKypMMADmt5Vv2vs1-2" value="前端" style="rounded=1;whiteSpace=wrap;html=1;" vertex="1" parent="1">
          <mxGeometry x="170" y="160" width="60" height="30" as="geometry" />
        </mxCell>
        <mxCell id="GrmwKypMMADmt5Vv2vs1-4" value="" style="endArrow=none;html=1;rounded=0;" edge="1" parent="1" target="GrmwKypMMADmt5Vv2vs1-1">
          <mxGeometry width="50" height="50" relative="1" as="geometry">
            <mxPoint x="110" y="340" as="sourcePoint" />
            <mxPoint x="160" y="290" as="targetPoint" />
            <Array as="points">
              <mxPoint x="730" y="340" />
            </Array>
          </mxGeometry>
        </mxCell>
        <mxCell id="GrmwKypMMADmt5Vv2vs1-6" value="" style="endArrow=none;html=1;rounded=0;entryX=0.5;entryY=0;entryDx=0;entryDy=0;" edge="1" parent="1" target="GrmwKypMMADmt5Vv2vs1-1">
          <mxGeometry width="50" height="50" relative="1" as="geometry">
            <mxPoint x="420" y="340" as="sourcePoint" />
            <mxPoint x="440" y="380" as="targetPoint" />
          </mxGeometry>
        </mxCell>
        <mxCell id="GrmwKypMMADmt5Vv2vs1-7" value="Spring Data JPA" style="rounded=0;whiteSpace=wrap;html=1;" vertex="1" parent="1">
          <mxGeometry x="580" y="240" width="70" height="60" as="geometry" />
        </mxCell>
        <mxCell id="GrmwKypMMADmt5Vv2vs1-8" value="Spring MVC" style="rounded=0;whiteSpace=wrap;html=1;" vertex="1" parent="1">
          <mxGeometry x="460" y="240" width="70" height="60" as="geometry" />
        </mxCell>
        <mxCell id="GrmwKypMMADmt5Vv2vs1-9" value="Spring Boot" style="rounded=0;whiteSpace=wrap;html=1;" vertex="1" parent="1">
          <mxGeometry x="580" y="160" width="70" height="60" as="geometry" />
        </mxCell>
        <mxCell id="GrmwKypMMADmt5Vv2vs1-10" value="后端" style="rounded=1;whiteSpace=wrap;html=1;" vertex="1" parent="1">
          <mxGeometry x="460" y="160" width="60" height="30" as="geometry" />
        </mxCell>
        <mxCell id="GrmwKypMMADmt5Vv2vs1-11" value="html/css" style="rounded=0;whiteSpace=wrap;html=1;" vertex="1" parent="1">
          <mxGeometry x="290" y="240" width="60" height="60" as="geometry" />
        </mxCell>
        <mxCell id="GrmwKypMMADmt5Vv2vs1-12" value="javascript" style="whiteSpace=wrap;html=1;aspect=fixed;" vertex="1" parent="1">
          <mxGeometry x="290" y="160" width="60" height="60" as="geometry" />
        </mxCell>
        <mxCell id="GrmwKypMMADmt5Vv2vs1-13" value="mysql" style="rounded=0;whiteSpace=wrap;html=1;" vertex="1" parent="1">
          <mxGeometry x="280" y="400" width="120" height="60" as="geometry" />
        </mxCell>
        <mxCell id="GrmwKypMMADmt5Vv2vs1-14" value="数据库" style="rounded=1;whiteSpace=wrap;html=1;" vertex="1" parent="1">
          <mxGeometry x="150" y="350" width="90" height="50" as="geometry" />
        </mxCell>
        <mxCell id="GrmwKypMMADmt5Vv2vs1-15" value="Redis" style="rounded=0;whiteSpace=wrap;html=1;" vertex="1" parent="1">
          <mxGeometry x="450" y="400" width="120" height="60" as="geometry" />
        </mxCell>
      </root>
    </mxGraphModel>
  </diagram>
</mxfile>
